<svg width="1024" height="1024" viewBox="0 0 1024 1024" fill="none" xmlns="http://www.w3.org/2000/svg">
<path d="M0 0H1024V1024H0V0Z" fill="#E14A68"/>
<path d="M669.116 340.426L669.117 340.428C690.732 397.508 683.181 456.975 666.11 525.735C646.334 605.212 623.416 664.698 589.036 739.02L589.014 739.068C566.456 787.833 538.684 841.416 512.823 886.396C458.862 825.008 332.217 660.249 347.528 456.271L347.528 456.27C353.311 379.171 377.795 317.539 401.628 273.435C416.653 249.271 442.358 220.779 466.793 198.173C479.006 186.874 490.648 177.282 500.172 170.591C504.949 167.236 508.997 164.75 512.184 163.148C514.508 161.98 515.837 161.561 516.367 161.411C517.971 161.741 520.861 162.661 525.116 164.551C529.951 166.699 535.705 169.714 541.879 173.323C554.245 180.553 567.671 189.8 577.926 198.35L578.239 198.611L578.571 198.848C617.923 226.898 646.099 279.615 669.116 340.426Z" fill="#FDF6E9" stroke="#E14A68" stroke-width="21.5305"/>
<path d="M527.969 163.378L512.785 154.034L528.164 145.014C571.157 119.796 623.312 124.556 680.305 143.535L680.306 143.536C719.903 156.728 745.687 174.561 761.504 191.707C769.396 200.263 774.842 208.69 778.23 216.306C781.516 223.694 783.192 231.072 782.506 237.31L782.502 237.346L782.498 237.382C782.114 240.668 780.386 242.821 779.33 243.866C778.267 244.917 777.217 245.527 776.656 245.825C775.523 246.426 774.47 246.744 773.973 246.887C772.847 247.21 771.581 247.449 770.539 247.63C769.021 247.895 766.999 248.197 764.738 248.536C763.785 248.678 762.789 248.827 761.77 248.982C754.64 250.069 744.867 251.678 733.738 254.404C711.31 259.898 684.206 269.74 662.704 288.141L653.249 296.232L646.654 285.679C611.486 229.41 573.094 191.147 527.969 163.378Z" fill="#FDF6E9" stroke="#E14A68" stroke-width="21.4256"/>
<path d="M520.15 723.784C520.15 641.411 515.943 577.094 500.364 495.821C486.913 425.851 468.321 365.878 422.257 320.714C375.674 275.027 323.141 253.78 272.248 244.203C265.062 242.852 241.273 247.448 229.381 251.634C176.618 270.056 140.317 319.667 133.098 378.908C129.878 430.09 133.566 498.019 161.401 572.332C239.663 781.298 448.12 878.795 511.425 905.275C516.878 850.221 520.15 783.077 520.15 723.836V723.784Z" fill="#FDF6E9" stroke="#E14A68" stroke-width="21.5305"/>
<path d="M505.778 723.892C505.778 641.52 509.985 577.202 525.565 495.929C539.015 425.96 557.607 365.986 603.671 320.822C650.254 275.136 702.787 253.888 753.681 244.311C760.866 242.96 784.655 247.556 796.547 251.743C849.311 270.164 885.611 319.776 892.83 379.017C896.05 430.199 892.363 498.127 864.527 572.44C786.265 781.406 577.809 878.903 514.503 905.383C509.05 850.329 505.778 783.186 505.778 723.945V723.892Z" fill="#FDF6E9" stroke="#E14A68" stroke-width="21.5305"/>
<path d="M511.393 163.375L526.577 154.031L511.199 145.01C468.205 119.792 416.051 124.553 359.058 143.532L359.056 143.532C319.67 156.655 293.265 173.47 276.724 189.535C268.465 197.556 262.563 205.492 258.794 212.794C255.152 219.851 253.042 227.225 253.766 233.812L253.77 233.847L253.774 233.883C254.189 237.44 256.172 239.671 257.254 240.66C258.367 241.677 259.45 242.245 259.999 242.51C261.126 243.054 262.172 243.335 262.67 243.462C263.806 243.751 265.105 243.965 266.216 244.131C267.782 244.366 269.859 244.632 272.197 244.931C273.276 245.069 274.411 245.214 275.576 245.366C283.217 246.365 293.673 247.862 305.486 250.48C329.342 255.766 357.646 265.4 379.009 283.683L388.463 291.774L395.059 281.221C430.123 225.119 466.112 191.239 511.393 163.375Z" fill="#FDF6E9" stroke="#E14A68" stroke-width="21.4256"/>
<path d="M532.56 153.985C571.481 131.156 615.639 126.99 671.726 145.667C748.092 171.11 773.713 218.003 772.104 232.641C772.047 233.127 770.121 233.27 766.465 233.543C752.004 234.623 710.476 237.723 650.544 271.969C614.616 214.485 579.267 182.727 532.56 153.985Z" fill="#FDF6E9"/>
<path d="M532.56 153.985C571.481 131.156 615.639 126.99 671.726 145.667C748.092 171.11 773.713 218.003 772.104 232.641C772.047 233.127 770.121 233.27 766.465 233.543C752.004 234.623 710.476 237.723 650.544 271.969C614.616 214.485 579.267 182.727 532.56 153.985Z" stroke="#E14A68"/>
</svg>
