<svg width="807" height="213" viewBox="0 0 807 213" fill="none" xmlns="http://www.w3.org/2000/svg">
<path d="M253.275 93.9771V9.49705H289.755C295.046 9.49705 299.782 9.96638 303.963 10.905C308.23 11.7584 311.856 13.1237 314.843 15.001C317.83 16.793 320.091 19.1397 321.627 22.041C323.248 24.857 324.059 28.2277 324.059 32.153C324.059 35.481 323.334 38.3824 321.883 40.857C320.518 43.3317 318.342 45.337 315.355 46.873C312.368 48.409 308.4 49.433 303.451 49.945V52.121C311.643 52.633 317.702 54.5957 321.627 58.009C325.552 61.4224 327.515 66.0304 327.515 71.833C327.515 76.7824 326.192 80.8784 323.547 84.121C320.902 87.3637 317.019 89.8384 311.899 91.5451C306.779 93.1664 300.464 93.9771 292.955 93.9771H253.275ZM272.987 77.5931H292.187C297.392 77.5931 301.232 76.8677 303.707 75.417C306.182 73.8811 307.419 71.4917 307.419 68.2491C307.419 64.665 305.926 61.977 302.939 60.1851C299.952 58.393 295.387 57.497 289.243 57.497H272.987V77.5931ZM272.987 44.953H286.427C292.486 44.953 296.923 44.1424 299.739 42.521C302.555 40.8144 303.963 38.297 303.963 34.969C303.963 31.7264 302.64 29.3797 299.995 27.929C297.435 26.393 293.51 25.625 288.219 25.625H272.987V44.953ZM372.801 95.7691C367.169 95.7691 362.134 95.0437 357.697 93.5931C353.259 92.0571 349.462 89.8384 346.305 86.9371C343.233 84.0357 340.886 80.4517 339.265 76.185C337.643 71.9184 336.833 67.0117 336.833 61.465C336.833 56.0891 337.601 51.1397 339.137 46.6171C340.758 42.0944 343.019 38.2117 345.921 34.969C348.907 31.641 352.534 29.081 356.801 27.289C361.153 25.497 366.017 24.601 371.393 24.601C376.854 24.601 381.633 25.497 385.729 27.289C389.91 28.9957 393.323 31.5557 395.969 34.969C398.699 38.3824 400.705 42.5637 401.985 47.5131C403.265 52.377 403.691 57.9664 403.265 64.281L350.401 64.665V53.913L391.489 53.529L384.193 58.521C384.79 54.2544 384.534 50.7984 383.425 48.153C382.315 45.4224 380.694 43.4597 378.561 42.265C376.427 40.985 374.123 40.345 371.649 40.345C368.662 40.345 366.017 41.1557 363.713 42.7771C361.494 44.3984 359.745 46.745 358.465 49.817C357.185 52.889 356.545 56.6437 356.545 61.0811C356.545 68.0784 358.038 73.1557 361.025 76.313C364.097 79.4704 367.979 81.0491 372.673 81.0491C374.977 81.0491 376.897 80.7504 378.433 80.1531C379.969 79.4704 381.206 78.6597 382.145 77.7211C383.169 76.697 383.937 75.5877 384.449 74.393C385.046 73.1984 385.515 72.0464 385.857 70.937L403.777 74.7771C403.094 77.9344 401.985 80.7931 400.449 83.3531C398.998 85.9131 396.993 88.1317 394.433 90.0091C391.958 91.8864 388.929 93.2944 385.345 94.2331C381.846 95.2571 377.665 95.7691 372.801 95.7691ZM415.467 93.9771V50.329V26.3931H431.723L431.979 46.233H434.539C435.733 41.369 437.312 37.3584 439.275 34.201C441.237 30.9584 443.627 28.5691 446.443 27.0331C449.259 25.4117 452.544 24.601 456.299 24.601C460.224 24.601 463.467 25.4544 466.027 27.161C468.672 28.7824 470.763 31.2144 472.299 34.457C473.835 37.6144 474.859 41.5397 475.371 46.233H477.547C478.912 41.1984 480.704 37.1024 482.923 33.945C485.141 30.7024 487.787 28.3557 490.859 26.905C493.931 25.369 497.259 24.601 500.843 24.601C504.683 24.601 508.011 25.369 510.827 26.905C513.728 28.3557 516.117 30.5744 517.995 33.561C519.957 36.4624 521.408 40.1317 522.347 44.569C523.285 48.921 523.755 53.9984 523.755 59.801V93.9771H503.019V62.361C503.019 57.8384 502.635 54.0837 501.867 51.097C501.184 48.1104 500.075 45.8917 498.539 44.441C497.003 42.905 495.04 42.137 492.651 42.137C489.92 42.137 487.573 43.033 485.611 44.8251C483.733 46.6171 482.283 49.1344 481.259 52.377C480.235 55.5344 479.723 59.1184 479.723 63.129V93.9771H459.499V62.745C459.499 58.0517 459.072 54.2117 458.219 51.225C457.451 48.2384 456.256 45.977 454.635 44.441C453.099 42.905 451.136 42.137 448.747 42.137C446.016 42.137 443.712 43.033 441.835 44.8251C439.957 46.6171 438.507 49.1344 437.483 52.377C436.544 55.5344 436.075 59.1184 436.075 63.129V93.9771H415.467ZM253.275 195.977V111.497H273.883V195.977H253.275ZM256.987 195.977V178.697H308.315V195.977H256.987ZM349.301 197.769C343.669 197.769 338.634 197.044 334.197 195.593C329.759 194.057 325.962 191.838 322.805 188.937C319.733 186.036 317.386 182.452 315.765 178.185C314.143 173.918 313.333 169.012 313.333 163.465C313.333 158.089 314.101 153.14 315.637 148.617C317.258 144.094 319.519 140.212 322.421 136.969C325.407 133.641 329.034 131.081 333.301 129.289C337.653 127.497 342.517 126.601 347.893 126.601C353.354 126.601 358.133 127.497 362.229 129.289C366.41 130.996 369.823 133.556 372.469 136.969C375.199 140.382 377.205 144.564 378.485 149.513C379.765 154.377 380.191 159.966 379.765 166.281L326.901 166.665V155.913L367.989 155.529L360.693 160.521C361.29 156.254 361.034 152.798 359.925 150.153C358.815 147.422 357.194 145.46 355.061 144.265C352.927 142.985 350.623 142.345 348.149 142.345C345.162 142.345 342.517 143.156 340.213 144.777C337.994 146.398 336.245 148.745 334.965 151.817C333.685 154.889 333.045 158.644 333.045 163.081C333.045 170.078 334.538 175.156 337.525 178.313C340.597 181.47 344.479 183.049 349.173 183.049C351.477 183.049 353.397 182.75 354.933 182.153C356.469 181.47 357.706 180.66 358.645 179.721C359.669 178.697 360.437 177.588 360.949 176.393C361.546 175.198 362.015 174.046 362.357 172.937L380.277 176.777C379.594 179.934 378.485 182.793 376.949 185.353C375.498 187.913 373.493 190.132 370.933 192.009C368.458 193.886 365.429 195.294 361.845 196.233C358.346 197.257 354.165 197.769 349.301 197.769ZM391.967 195.977V152.329V128.393H408.223L408.479 148.233H411.039C412.233 143.369 413.812 139.358 415.775 136.201C417.737 132.958 420.127 130.569 422.943 129.033C425.759 127.412 429.044 126.601 432.799 126.601C436.724 126.601 439.967 127.454 442.527 129.161C445.172 130.782 447.263 133.214 448.799 136.457C450.335 139.614 451.359 143.54 451.871 148.233H454.047C455.412 143.198 457.204 139.102 459.423 135.945C461.641 132.702 464.287 130.356 467.359 128.905C470.431 127.369 473.759 126.601 477.343 126.601C481.183 126.601 484.511 127.369 487.327 128.905C490.228 130.356 492.617 132.574 494.495 135.561C496.457 138.462 497.908 142.132 498.847 146.569C499.785 150.921 500.255 155.998 500.255 161.801V195.977H479.519V164.361C479.519 159.838 479.135 156.084 478.367 153.097C477.684 150.11 476.575 147.892 475.039 146.441C473.503 144.905 471.54 144.137 469.151 144.137C466.42 144.137 464.073 145.033 462.111 146.825C460.233 148.617 458.783 151.134 457.759 154.377C456.735 157.534 456.223 161.118 456.223 165.129V195.977H435.999V164.745C435.999 160.052 435.572 156.212 434.719 153.225C433.951 150.238 432.756 147.977 431.135 146.441C429.599 144.905 427.636 144.137 425.247 144.137C422.516 144.137 420.212 145.033 418.335 146.825C416.457 148.617 415.007 151.134 413.983 154.377C413.044 157.534 412.575 161.118 412.575 165.129V195.977H391.967ZM557.637 197.769C553.371 197.769 549.616 196.958 546.373 195.337C543.216 193.716 540.613 191.284 538.565 188.041C536.603 184.798 535.28 180.788 534.597 176.009H532.165L531.781 195.977H514.885V162.825V103.817H535.493V126.217C535.493 128.265 535.323 130.441 534.981 132.745C534.725 134.964 534.341 137.31 533.829 139.785C533.403 142.26 532.933 144.905 532.421 147.721H535.365C536.56 143.113 538.139 139.273 540.101 136.201C542.064 133.129 544.496 130.825 547.397 129.289C550.384 127.668 553.883 126.857 557.893 126.857C563.525 126.857 568.389 128.308 572.485 131.209C576.667 134.11 579.909 138.249 582.213 143.625C584.517 148.916 585.669 155.273 585.669 162.697C585.669 169.865 584.517 176.094 582.213 181.385C579.995 186.59 576.795 190.644 572.613 193.545C568.432 196.361 563.44 197.769 557.637 197.769ZM549.957 181.129C552.773 181.129 555.248 180.361 557.381 178.825C559.515 177.204 561.136 174.985 562.245 172.169C563.44 169.268 564.037 165.897 564.037 162.057C564.037 158.132 563.483 154.804 562.373 152.073C561.264 149.257 559.685 147.081 557.637 145.545C555.675 144.009 553.285 143.241 550.469 143.241C548.592 143.241 546.843 143.582 545.221 144.265C543.685 144.948 542.32 145.886 541.125 147.081C539.931 148.276 538.907 149.641 538.053 151.177C537.2 152.628 536.56 154.206 536.133 155.913C535.707 157.534 535.493 159.156 535.493 160.777V163.465C535.493 165.257 535.749 167.177 536.261 169.225C536.773 171.273 537.584 173.193 538.693 174.985C539.888 176.777 541.381 178.27 543.173 179.465C545.051 180.574 547.312 181.129 549.957 181.129ZM597.554 195.977V164.617V128.393H614.45L614.834 151.305H617.394C617.992 145.332 619.101 140.596 620.722 137.097C622.429 133.513 624.818 130.91 627.89 129.289C631.048 127.668 634.93 126.857 639.538 126.857C640.221 126.857 640.989 126.9 641.842 126.985C642.696 126.985 643.677 127.07 644.786 127.241L644.018 149.257C642.653 148.574 641.16 148.148 639.538 147.977C638.002 147.721 636.637 147.593 635.442 147.593C632.114 147.593 629.213 148.233 626.738 149.513C624.349 150.793 622.429 152.756 620.978 155.401C619.613 158.046 618.717 161.374 618.29 165.385V195.977H597.554ZM669.22 197.769C665.465 197.769 662.137 197.044 659.236 195.593C656.335 194.057 654.073 191.881 652.452 189.065C650.831 186.164 650.02 182.665 650.02 178.569C650.02 174.729 650.745 171.572 652.196 169.097C653.732 166.537 655.908 164.532 658.724 163.081C661.625 161.545 665.081 160.308 669.092 159.369C673.103 158.345 677.668 157.449 682.788 156.681C685.263 156.254 687.311 155.87 688.932 155.529C690.639 155.102 691.919 154.462 692.772 153.609C693.625 152.756 694.052 151.518 694.052 149.897C694.052 147.764 693.284 145.929 691.748 144.393C690.212 142.857 687.737 142.089 684.324 142.089C681.935 142.089 679.759 142.516 677.796 143.369C675.919 144.222 674.297 145.46 672.932 147.081C671.567 148.702 670.543 150.665 669.86 152.969L651.684 147.593C652.793 144.009 654.329 140.894 656.292 138.249C658.34 135.604 660.772 133.428 663.588 131.721C666.404 129.929 669.604 128.649 673.188 127.881C676.857 127.028 680.74 126.601 684.836 126.601C691.663 126.601 697.209 127.71 701.476 129.929C705.828 132.062 709.028 135.433 711.076 140.041C713.209 144.564 714.276 150.409 714.276 157.577V167.945C714.276 171.017 714.319 174.132 714.404 177.289C714.575 180.361 714.745 183.476 714.916 186.633C715.172 189.705 715.471 192.82 715.812 195.977H697.636C697.295 194.014 696.953 191.668 696.612 188.937C696.271 186.121 696.015 183.262 695.844 180.361H693.412C692.217 183.604 690.468 186.59 688.164 189.321C685.945 191.966 683.215 194.057 679.972 195.593C676.815 197.044 673.231 197.769 669.22 197.769ZM678.564 183.177C680.1 183.177 681.636 182.921 683.172 182.409C684.793 181.812 686.329 181.044 687.78 180.105C689.231 179.081 690.553 177.844 691.748 176.393C692.943 174.942 693.839 173.364 694.436 171.657L694.18 161.545L696.996 162.185C695.375 163.209 693.583 164.02 691.62 164.617C689.657 165.214 687.652 165.684 685.604 166.025C683.641 166.366 681.679 166.75 679.716 167.177C677.839 167.518 676.132 167.988 674.596 168.585C673.145 169.182 671.993 169.993 671.14 171.017C670.287 172.041 669.86 173.449 669.86 175.241C669.86 177.63 670.671 179.55 672.292 181.001C673.913 182.452 676.004 183.177 678.564 183.177ZM729.142 195.977V164.617V128.393H746.038L746.422 151.305H748.982C749.579 145.332 750.689 140.596 752.31 137.097C754.017 133.513 756.406 130.91 759.478 129.289C762.635 127.668 766.518 126.857 771.126 126.857C771.809 126.857 772.577 126.9 773.43 126.985C774.283 126.985 775.265 127.07 776.374 127.241L775.606 149.257C774.241 148.574 772.747 148.148 771.126 147.977C769.59 147.721 768.225 147.593 767.03 147.593C763.702 147.593 760.801 148.233 758.326 149.513C755.937 150.793 754.017 152.756 752.566 155.401C751.201 158.046 750.305 161.374 749.878 165.385V195.977H729.142Z" fill="#E14A68"/>
<path fill-rule="evenodd" clip-rule="evenodd" d="M173.346 42.802C171.961 42.3147 169.756 41.7655 167.637 41.3831C166.588 41.1938 165.611 41.0547 164.811 40.9832C164.412 40.9475 164.082 40.9311 163.826 40.9302C163.59 40.9294 163.479 40.9424 163.46 40.9446L163.46 40.9446C163.457 40.945 163.456 40.9451 163.458 40.9448C150.392 43.4034 137.021 48.8276 125.159 60.4616L125.159 60.4619C113.605 71.7902 108.803 86.9392 105.257 105.385C101.169 126.71 100.062 143.575 100.062 165.286V165.3C100.062 179.543 100.78 195.526 101.996 209.227C121.816 200.46 170.623 174.911 189.642 124.13L189.642 124.13C196.832 104.934 197.801 87.3789 196.975 74.1139C195.15 59.3661 186.146 47.2711 173.353 42.8045L173.346 42.802Z" fill="#E14A68"/>
<path fill-rule="evenodd" clip-rule="evenodd" d="M95.9004 126.439C94.4746 139.054 94.0141 151.178 94.0141 165.24V165.253C94.0141 179.413 94.7145 195.261 95.908 208.976C95.902 209.044 95.896 209.112 95.89 209.18C76.0695 200.413 27.2628 174.865 8.24397 124.083L8.24392 124.083C1.05379 104.888 0.0849129 87.3325 0.910681 74.0675C2.73554 59.3197 11.7395 47.2247 24.5329 42.7581L24.5399 42.7557C25.9244 42.2683 28.1294 41.7191 30.249 41.3367C31.2979 41.1474 32.2752 41.0083 33.0744 40.9368C33.4739 40.9011 33.8035 40.8847 34.0596 40.8838C34.2958 40.883 34.4072 40.896 34.4261 40.8983L34.4261 40.8983C34.4292 40.8986 34.4298 40.8987 34.4281 40.8984C47.4934 43.357 60.8643 48.7812 72.7267 60.4152L72.727 60.4155C84.2811 71.7438 89.0831 86.8928 92.6291 105.338C94.0563 112.784 95.1202 119.685 95.9004 126.439Z" fill="#E14A68"/>
<path fill-rule="evenodd" clip-rule="evenodd" d="M104.243 14.2423C114.562 8.18984 127.375 9.14338 142.245 14.0951C161.851 20.6274 167.489 31.3649 167.439 35.562C166.582 35.4233 165.747 35.3127 164.988 35.2448C164.053 35.1613 162.962 35.1142 162.069 35.2821L162.069 35.2822C153.136 36.9631 143.971 39.9708 135.159 45.2372C130.427 36.3026 124.801 28.7121 117.827 23.7409C115.625 21.9044 112.926 19.9742 110.25 18.2771C108.297 16.8479 106.296 15.5058 104.243 14.2423Z" fill="#E14A68"/>
<path fill-rule="evenodd" clip-rule="evenodd" d="M137.501 64.614L137.501 64.6148C142.905 78.8854 141.103 93.916 136.602 112.043C131.414 132.894 125.409 148.49 116.348 168.078L116.343 168.09C112.221 177 107.438 186.523 102.622 195.474C103.211 185.426 103.539 174.945 103.539 165.254V165.24C103.539 151.178 103.079 139.053 101.653 126.438C102.433 119.684 103.497 112.783 104.924 105.339C108.47 86.8933 113.272 71.7443 124.826 60.4161L124.826 60.4158C127.451 57.8419 130.149 55.572 132.901 53.5709C134.513 57.0567 136.04 60.754 137.501 64.614ZM98.7767 107.116C98.949 106.173 99.127 105.222 99.3109 104.263L99.3112 104.261C102.897 85.6065 107.954 68.9549 120.825 56.3354C123.914 53.3057 127.098 50.6667 130.347 48.3694C125.838 39.7481 120.672 32.7868 114.51 28.3948L114.334 28.2692L114.167 28.1305C111.588 25.9795 108.162 23.6168 104.999 21.7677C103.422 20.8463 101.994 20.1009 100.837 19.5866C100.416 19.3997 100.081 19.2662 99.8248 19.1714C99.1519 19.5125 98.2145 20.0824 97.0296 20.9147C94.6402 22.5931 91.6549 25.0473 88.4783 27.9863C82.1218 33.867 75.5361 41.1884 71.7339 47.2776C71.176 48.3118 70.6169 49.3827 70.0603 50.4901C72.3234 52.2556 74.5498 54.1983 76.7289 56.3354C89.5998 68.9549 94.6561 85.6065 98.2423 104.261L98.2425 104.263C98.4265 105.222 98.6045 106.173 98.7767 107.116ZM95.9005 126.438C95.1203 119.684 94.0566 112.783 92.6295 105.339C89.0835 86.8933 84.2815 71.7443 72.7274 60.4161L72.7271 60.4158C71.0306 58.7519 69.3033 57.2151 67.5504 55.7958C62.9409 66.1785 58.9204 79.1688 57.7682 94.5285L57.7681 94.5288C54.2652 141.196 79.4807 180.1 95.1959 199.683C94.4408 188.39 94.014 176.308 94.014 165.254V165.24C94.014 151.178 94.4745 139.053 95.9005 126.438Z" fill="#E14A68"/>
<path fill-rule="evenodd" clip-rule="evenodd" d="M96.8714 14.2131C86.5526 8.16065 73.7392 9.11419 58.8692 14.066C39.798 20.42 33.9436 30.7531 33.6847 35.175C34.3044 35.1566 34.9321 35.1783 35.4842 35.2821L35.4845 35.2822C45.3204 37.133 55.4374 40.5927 65.0565 46.9049C65.3975 46.5182 65.7355 46.134 66.0707 45.7522C66.3101 45.2975 66.5494 44.8493 66.7884 44.4076C73.8502 33.0056 89.1858 18.5564 96.5956 14.418C96.6874 14.3496 96.7793 14.2813 96.8714 14.2131Z" fill="#E14A68"/>
<path fill-rule="evenodd" clip-rule="evenodd" d="M173.346 42.802C171.961 42.3147 169.756 41.7655 167.637 41.3831C166.588 41.1938 165.611 41.0547 164.811 40.9832C164.412 40.9475 164.082 40.9311 163.826 40.9302C163.59 40.9294 163.479 40.9424 163.46 40.9446L163.46 40.9446C163.457 40.945 163.456 40.9451 163.458 40.9448C150.392 43.4034 137.021 48.8276 125.159 60.4616L125.159 60.4619C113.605 71.7902 108.803 86.9392 105.257 105.385C101.169 126.71 100.062 143.575 100.062 165.286V165.3C100.062 179.543 100.78 195.526 101.996 209.227C121.816 200.46 170.623 174.911 189.642 124.13L189.642 124.13C196.832 104.934 197.801 87.3789 196.975 74.1139C195.15 59.3661 186.146 47.2711 173.353 42.8045L173.346 42.802Z" fill="#E14A68"/>
<path fill-rule="evenodd" clip-rule="evenodd" d="M95.9004 126.439C94.4746 139.054 94.0141 151.178 94.0141 165.24V165.253C94.0141 179.413 94.7145 195.261 95.908 208.976C95.902 209.044 95.896 209.112 95.89 209.18C76.0695 200.413 27.2628 174.865 8.24397 124.083L8.24392 124.083C1.05379 104.888 0.0849129 87.3325 0.910681 74.0675C2.73554 59.3197 11.7395 47.2247 24.5329 42.7581L24.5399 42.7557C25.9244 42.2683 28.1294 41.7191 30.249 41.3367C31.2979 41.1474 32.2752 41.0083 33.0744 40.9368C33.4739 40.9011 33.8035 40.8847 34.0596 40.8838C34.2958 40.883 34.4072 40.896 34.4261 40.8983L34.4261 40.8983C34.4292 40.8986 34.4298 40.8987 34.4281 40.8984C47.4934 43.357 60.8643 48.7812 72.7267 60.4152L72.727 60.4155C84.2811 71.7438 89.0831 86.8928 92.6291 105.338C94.0563 112.784 95.1202 119.685 95.9004 126.439Z" fill="#E14A68"/>
<path fill-rule="evenodd" clip-rule="evenodd" d="M104.243 14.2423C114.562 8.18984 127.375 9.14338 142.245 14.0951C161.851 20.6274 167.489 31.3649 167.439 35.562C166.582 35.4233 165.747 35.3127 164.988 35.2448C164.053 35.1613 162.962 35.1142 162.069 35.2821L162.069 35.2822C153.136 36.9631 143.971 39.9708 135.159 45.2372C130.427 36.3026 124.801 28.7121 117.827 23.7409C115.625 21.9044 112.926 19.9742 110.25 18.2771C108.297 16.8479 106.296 15.5058 104.243 14.2423Z" fill="#E14A68"/>
<path fill-rule="evenodd" clip-rule="evenodd" d="M137.501 64.614L137.501 64.6148C142.905 78.8854 141.103 93.916 136.602 112.043C131.414 132.894 125.409 148.49 116.348 168.078L116.343 168.09C112.221 177 107.438 186.523 102.622 195.474C103.211 185.426 103.539 174.945 103.539 165.254V165.24C103.539 151.178 103.079 139.053 101.653 126.438C102.433 119.684 103.497 112.783 104.924 105.339C108.47 86.8933 113.272 71.7443 124.826 60.4161L124.826 60.4158C127.451 57.8419 130.149 55.572 132.901 53.5709C134.513 57.0567 136.04 60.754 137.501 64.614ZM98.7767 107.116C98.949 106.173 99.127 105.222 99.3109 104.263L99.3112 104.261C102.897 85.6065 107.954 68.9549 120.825 56.3354C123.914 53.3057 127.098 50.6667 130.347 48.3694C125.838 39.7481 120.672 32.7868 114.51 28.3948L114.334 28.2692L114.167 28.1305C111.588 25.9795 108.162 23.6168 104.999 21.7677C103.422 20.8463 101.994 20.1009 100.837 19.5866C100.416 19.3997 100.081 19.2662 99.8248 19.1714C99.1519 19.5125 98.2145 20.0824 97.0296 20.9147C94.6402 22.5931 91.6549 25.0473 88.4783 27.9863C82.1218 33.867 75.5361 41.1884 71.7339 47.2776C71.176 48.3118 70.6169 49.3827 70.0603 50.4901C72.3234 52.2556 74.5498 54.1983 76.7289 56.3354C89.5998 68.9549 94.6561 85.6065 98.2423 104.261L98.2425 104.263C98.4265 105.222 98.6045 106.173 98.7767 107.116ZM95.9005 126.438C95.1203 119.684 94.0566 112.783 92.6295 105.339C89.0835 86.8933 84.2815 71.7443 72.7274 60.4161L72.7271 60.4158C71.0306 58.7519 69.3033 57.2151 67.5504 55.7958C62.9409 66.1785 58.9204 79.1688 57.7682 94.5285L57.7681 94.5288C54.2652 141.196 79.4807 180.1 95.1959 199.683C94.4408 188.39 94.014 176.308 94.014 165.254V165.24C94.014 151.178 94.4745 139.053 95.9005 126.438Z" fill="#E14A68"/>
<path fill-rule="evenodd" clip-rule="evenodd" d="M96.8714 14.2131C86.5526 8.16065 73.7392 9.11419 58.8692 14.066C39.798 20.42 33.9436 30.7531 33.6847 35.175C34.3044 35.1566 34.9321 35.1783 35.4842 35.2821L35.4845 35.2822C45.3204 37.133 55.4374 40.5927 65.0565 46.9049C65.3975 46.5182 65.7355 46.134 66.0707 45.7522C66.3101 45.2975 66.5494 44.8493 66.7884 44.4076C73.8502 33.0056 89.1858 18.5564 96.5956 14.418C96.6874 14.3496 96.7793 14.2813 96.8714 14.2131Z" fill="#E14A68"/>
</svg>
